<svg xmlns="http://www.w3.org/2000/svg"  enable-background="new -10 -10 539 520" viewBox="-10 -10 539 520" width="500px" height="500px"><g><path  d="m 346 61 c -8.291 0 -15 6.709 -15 15 s 6.709 15 15 15 c 24.814 0 45 20.186 45 45 c 0 8.291 6.709 15 15 15 s 15 -6.709 15 -15 c 0 -24.814 20.186 -45 45 -45 c 8.291 0 15 -6.709 15 -15 s -6.709 -15 -15 -15 c -24.814 0 -45 -21.186 -45 -46 c 0 -8.291 -6.709 -15 -15 -15 s -15 6.709 -15 15 c 0 24.814 -20.186 46 -45 46 Z" /><path d="m 181 196 c 0 8.291 6.709 15 15 15 c 41.353 0 75 33.647 75 75 c 0 8.291 6.709 15 15 15 s 15 -6.709 15 -15 c 0 -41.353 33.647 -75 75 -75 c 8.291 0 15 -6.709 15 -15 s -6.709 -15 -15 -15 c -41.353 0 -75 -33.647 -75 -75 c 0 -8.291 -6.709 -15 -15 -15 s -15 6.709 -15 15 c 0 41.353 -33.647 75 -75 75 c -8.291 0 -15 6.709 -15 15 Z" /><path d="m 256 512 c 126.738 0 238.71 -95.717 255.864 -221.298 c 0.937 -6.943 -3.032 -13.594 -9.565 -16.069 c -6.563 -2.476 -13.945 -0.103 -17.798 5.742 c -33.531 50.479 -93.076 80.625 -153.501 80.625 c -99.258 0 -180 -80.742 -180 -180 c 0 -60.425 30.146 -119.987 80.624 -153.517 c 5.831 -3.867 8.218 -11.25 5.743 -17.798 c -2.476 -6.533 -9.155 -10.43 -16.069 -9.565 c -125.581 17.153 -221.298 129.142 -221.298 255.88 c 0 140.61 115.39 256 256 256 Z" /></g></svg>